<svg xmlns="http://www.w3.org/2000/svg" width="42" height="42" viewBox="0 0 42 42"><path d="M 21 0 C 32.598 0 42 9.402 42 21 C 42 32.598 32.598 42 21 42 C 9.402 42 0 32.598 0 21 C 0 9.402 9.402 0 21 0 Z" fill="#ffffff"></path><path d="M 21 0 C 32.598 0 42 9.402 42 21 C 42 27.101 39.398 32.595 35.243 36.432 C 35.006 30.987 28.72 26.625 21 26.625 C 13.28 26.625 6.994 30.987 6.757 36.432 C 2.602 32.595 0 27.101 0 21 C 0 9.402 9.402 0 21 0 Z" fill="rgba(231, 231, 231, 1)"></path><path d="M 21.125 11.5 C 24.024 11.5 26.375 13.851 26.375 16.75 C 26.375 19.649 24.024 22 21.125 22 C 18.226 22 15.875 19.649 15.875 16.75 C 15.875 13.851 18.226 11.5 21.125 11.5 Z" fill="#ffffff"></path></svg>