<svg width="20" height="20" viewBox="0 0 20 20" fill="none" xmlns="http://www.w3.org/2000/svg">
<g clip-path="url(#clip0_3600_33356)">
<path d="M0.90918 8.18208V18.6951C0.90918 18.9141 1.08618 19.0931 1.30518 19.0951L7.92918 19.1631C8.15218 19.1651 8.33318 18.9851 8.33318 18.7631V14.9831C8.33318 14.7621 8.51218 14.5831 8.73318 14.5831H11.2672C11.4882 14.5831 11.6672 14.7621 11.6672 14.9831V18.7631C11.6672 18.9851 11.8482 19.1651 12.0712 19.1631L18.6952 19.0951C18.9142 19.0931 19.0912 18.9141 19.0912 18.6951V7.48808C19.0912 7.35308 19.0242 7.22808 18.9122 7.15408L10.2212 1.39608C10.0872 1.30808 9.91318 1.30808 9.77918 1.39608L1.08818 7.15408C0.97618 7.22808 0.90918 7.35308 0.90918 7.48808V8.18208Z" stroke="#818181" stroke-width="1.5" stroke-linejoin="round"/>
</g>
<defs>
<clipPath id="clip0_3600_33356">
<rect width="20" height="20" fill="white"/>
</clipPath>
</defs>
</svg>
