<svg xmlns="http://www.w3.org/2000/svg" width="16" height="16" viewBox="0 0 16 16"><path d="M 8 2 C 11.314 2 14 4.686 14 8 C 14 11.314 11.314 14 8 14 C 4.686 14 2 11.314 2 8 C 2 4.686 4.686 2 8 2 Z" fill="transparent" stroke-width="1.2" stroke="#c0c0c0"></path><path d="M 8 4.6 C 8.497 4.6 8.9 5.003 8.9 5.5 C 8.9 5.997 8.497 6.4 8 6.4 C 7.503 6.4 7.1 5.997 7.1 5.5 C 7.1 5.003 7.503 4.6 8 4.6 Z" fill="#c0c0c0"></path><path d="M 7.3 7.1 L 8.633 7.1 L 8.633 11.6 L 7.3 11.6 Z" fill="#c0c0c0"></path></svg>