<svg xmlns="http://www.w3.org/2000/svg" width="48" height="48"><path d="M 24 0 C 37.255 0 48 10.745 48 24 C 48 37.255 37.255 48 24 48 C 10.745 48 0 37.255 0 24 C 0 10.745 10.745 0 24 0 Z" fill="#ffffff"></path><path d="M 24 0 C 37.255 0 48 10.745 48 24 C 48 30.973 45.026 37.251 40.278 41.636 C 40.007 35.414 32.823 30.429 24 30.429 C 15.177 30.429 7.993 35.414 7.722 41.636 C 2.974 37.251 0 30.973 0 24 C 0 10.745 10.745 0 24 0 Z" fill="rgba(231, 231, 231, 1)"></path><path d="M 24.143 13.143 C 27.457 13.143 30.143 15.829 30.143 19.143 C 30.143 22.457 27.457 25.143 24.143 25.143 C 20.829 25.143 18.143 22.457 18.143 19.143 C 18.143 15.829 20.829 13.143 24.143 13.143 Z" fill="#ffffff"></path></svg>