<svg xmlns="http://www.w3.org/2000/svg" width="26" height="26"><path d="M 12.8 8 C 12.8 8.387 13.113 8.7 13.5 8.7 L 16.31 8.7 L 8.7 16.31 L 8.7 13.5 C 8.7 13.113 8.387 12.8 8 12.8 C 7.613 12.8 7.3 13.113 7.3 13.5 L 7.3 18 C 7.3 18.387 7.613 18.7 8 18.7 L 12.5 18.7 C 12.887 18.7 13.2 18.387 13.2 18 C 13.2 17.613 12.887 17.3 12.5 17.3 L 9.69 17.3 L 17.3 9.69 L 17.3 12.5 C 17.3 12.887 17.613 13.2 18 13.2 C 18.387 13.2 18.7 12.887 18.7 12.5 L 18.7 8 C 18.7 7.613 18.387 7.3 18 7.3 L 13.5 7.3 C 13.113 7.3 12.8 7.613 12.8 8 Z" fill="#ffffff"></path></svg>