<svg xmlns="http://www.w3.org/2000/svg" width="100" height="100"><path d="M 50 0 C 77.614 0 100 22.386 100 50 C 100 77.614 77.614 100 50 100 C 22.386 100 0 77.614 0 50 C 0 22.386 22.386 0 50 0 Z" fill="rgba(246, 246, 246, 1)"></path><path d="M 65.625 28.245 C 67.351 28.245 68.75 29.644 68.75 31.37 L 68.75 70.883 C 68.75 73.321 66.082 74.82 64 73.552 L 51.625 66.018 C 50.627 65.41 49.373 65.41 48.375 66.018 L 36 73.552 C 33.918 74.82 31.25 73.321 31.25 70.883 L 31.25 31.37 C 31.25 29.644 32.649 28.245 34.375 28.245 Z" fill="rgba(219, 219, 219, 1)"></path><path d="M 49.957 37.23 C 50.211 36.403 51.319 36.403 51.574 37.23 L 52.802 41.219 C 52.916 41.59 53.242 41.84 53.611 41.84 L 57.584 41.84 C 58.408 41.84 58.75 42.953 58.084 43.464 L 54.869 45.93 C 54.571 46.158 54.446 46.564 54.56 46.933 L 55.788 50.923 C 56.043 51.75 55.146 52.438 54.48 51.927 L 51.265 49.461 C 50.967 49.232 50.563 49.232 50.266 49.461 L 47.051 51.927 C 46.385 52.438 45.488 51.75 45.743 50.923 L 46.97 46.933 C 47.084 46.564 46.959 46.158 46.661 45.93 L 43.447 43.464 C 42.781 42.953 43.123 41.84 43.947 41.84 L 47.92 41.84 C 48.288 41.84 48.615 41.59 48.729 41.219 Z" fill="rgba(246, 246, 246, 1)"></path></svg>