<svg xmlns="http://www.w3.org/2000/svg" width="100" height="100"><path d="M 50 0 C 77.614 0 100 22.386 100 50 C 100 77.614 77.614 100 50 100 C 22.386 100 0 77.614 0 50 C 0 22.386 22.386 0 50 0 Z" fill="rgba(246, 246, 246, 1)"></path><path d="M 21.389 40.777 C 20.605 40.963 20.12 41.752 20.306 42.539 L 26.731 69.813 C 26.917 70.599 27.702 71.086 28.486 70.9 L 78.144 59.103 C 78.927 58.916 79.412 58.128 79.227 57.341 L 77.138 48.477 L 77.138 48.477 C 74.31 49.149 71.474 47.391 70.805 44.551 C 70.136 41.711 71.887 38.863 74.715 38.191 L 74.715 38.191 L 72.801 30.067 C 72.616 29.28 71.83 28.793 71.047 28.98 Z" fill="rgba(219, 219, 219, 1)"></path><path d="M 59.556 37.277 L 64.402 57.848" fill="rgba(246, 246, 246, 1)" stroke="rgba(246, 246, 246, 1)" stroke-miterlimit="10" stroke-dasharray="2,2"></path><path d="M 1.577 5.877 C 0.685 5.847 0.035 6.066 0.001 6.994 C -0.032 7.922 0.601 8.185 1.493 8.215 L 2.082 8.235 L 2.751 12.476 C 2.925 13.597 3.623 14.048 4.569 14.08 C 5.532 14.113 6.173 13.652 6.461 12.602 L 7.611 8.423 L 9.465 8.486 L 10.313 12.733 C 10.525 13.8 11.132 14.303 12.095 14.336 C 13.04 14.368 13.769 13.965 14.023 12.859 L 14.994 8.674 L 15.583 8.694 C 16.475 8.725 17.125 8.505 17.158 7.577 C 17.192 6.649 16.558 6.386 15.667 6.356 L 15.524 6.351 L 16.514 2.148 C 16.726 1.208 16.267 0.56 15.503 0.46 C 14.721 0.341 14.225 0.733 14.032 1.636 L 13.063 6.268 L 11.333 6.209 L 10.443 1.645 C 10.276 0.821 9.724 0.264 8.833 0.233 C 7.941 0.203 7.351 0.722 7.125 1.532 L 5.911 6.024 L 4.163 5.965 L 3.545 1.28 C 3.417 0.365 2.951 -0.059 2.162 0.007 C 1.393 0.055 0.889 0.669 1.033 1.622 L 1.702 5.881 Z M 11.499 9.827 L 11.121 8.242 L 11.804 8.242 L 11.529 9.827 Z M 5.192 9.833 L 4.921 8.249 L 5.588 8.248 L 5.223 9.833 Z M 8.335 5.092 L 8.396 5.091 L 8.683 6.288 L 8.046 6.288 Z" transform="translate(34.452 45.235) rotate(-15 8.58 7.169)" fill="rgba(246, 246, 246, 1)"></path></svg>