<svg xmlns="http://www.w3.org/2000/svg" width="24" height="24" viewBox="0 0 24 24"><path d="M 15.045 1.422 C 16.008 1.819 16.881 2.401 17.609 3.134 C 18.337 3.868 18.905 4.739 19.276 5.695 C 19.645 6.643 19.812 7.654 19.767 8.667 L 19.767 11.445 L 19.765 11.469 L 19.765 11.47 L 19.765 11.474 L 19.764 11.501 C 19.763 11.527 19.762 11.567 19.761 11.62 C 19.76 11.725 19.759 11.882 19.764 12.078 C 19.773 12.472 19.803 13.016 19.887 13.616 C 20.056 14.837 20.42 16.099 21.096 16.891 L 21.12 16.911 C 21.18 16.963 21.262 17.036 21.351 17.126 C 21.499 17.278 21.779 17.586 21.916 17.989 C 21.991 18.208 22.046 18.521 21.945 18.866 C 21.84 19.227 21.605 19.493 21.337 19.668 C 20.871 19.973 20.231 20.059 19.548 20.066 L 19.537 20.066 L 15.394 20.066 C 15.382 20.396 15.317 20.723 15.2 21.035 C 15.04 21.462 14.789 21.849 14.467 22.172 C 14.145 22.495 13.758 22.748 13.335 22.92 C 12.912 23.092 12.457 23.179 12 23.179 C 11.543 23.179 11.088 23.092 10.665 22.92 C 10.242 22.748 9.855 22.495 9.533 22.172 C 9.211 21.849 8.96 21.462 8.8 21.035 C 8.683 20.723 8.618 20.396 8.606 20.066 L 4.463 20.066 C 3.781 20.066 3.137 19.987 2.667 19.682 C 2.396 19.507 2.159 19.24 2.054 18.877 C 1.955 18.532 2.009 18.22 2.083 18.002 C 2.218 17.601 2.495 17.29 2.643 17.136 C 2.731 17.045 2.813 16.971 2.872 16.918 L 2.901 16.894 C 3.579 16.102 3.944 14.838 4.113 13.616 C 4.197 13.016 4.227 12.472 4.236 12.078 C 4.241 11.882 4.24 11.725 4.239 11.62 C 4.238 11.567 4.237 11.527 4.236 11.501 L 4.235 11.474 L 4.235 11.47 L 4.234 11.469 L 4.233 11.445 L 4.233 8.667 C 4.188 7.654 4.355 6.643 4.724 5.695 C 5.095 4.739 5.663 3.868 6.391 3.134 C 7.119 2.401 7.992 1.819 8.955 1.422 C 9.919 1.025 10.478 0.821 12 0.821 C 13.522 0.821 14.081 1.025 15.045 1.422 Z M 6.314 11.586 C 6.316 11.716 6.316 11.9 6.311 12.127 C 6.301 12.578 6.266 13.204 6.169 13.902 C 5.998 15.132 5.613 16.753 4.681 17.991 L 19.32 17.991 C 18.387 16.753 18.002 15.132 17.831 13.902 C 17.734 13.204 17.699 12.578 17.689 12.127 C 17.684 11.9 17.684 11.716 17.686 11.586 C 17.687 11.521 17.689 11.469 17.69 11.433 L 17.691 11.399 L 17.691 8.618 L 17.692 8.593 C 17.728 7.863 17.609 7.133 17.342 6.447 C 17.075 5.76 16.665 5.13 16.135 4.596 C 15.605 4.062 14.966 3.634 14.255 3.341 C 13.543 3.048 12.776 2.897 12 2.897 C 11.224 2.897 10.457 3.048 9.745 3.341 C 9.034 3.634 8.395 4.062 7.865 4.596 C 7.335 5.13 6.925 5.76 6.658 6.447 C 6.391 7.133 6.272 7.863 6.308 8.593 L 6.309 8.618 L 6.309 11.399 L 6.31 11.433 C 6.311 11.469 6.313 11.521 6.314 11.586 Z M 13.314 20.066 L 10.686 20.066 C 10.695 20.147 10.714 20.228 10.744 20.308 C 10.797 20.45 10.884 20.587 11.003 20.706 C 11.123 20.826 11.272 20.927 11.445 20.997 C 11.618 21.067 11.807 21.104 12 21.104 C 12.193 21.104 12.382 21.067 12.555 20.997 C 12.728 20.927 12.877 20.826 12.997 20.706 C 13.116 20.587 13.203 20.45 13.256 20.308 C 13.286 20.228 13.305 20.148 13.314 20.066 Z"></path></svg>