<svg xmlns="http://www.w3.org/2000/svg" width="16" height="16"><path d="M 8.242 3.671 C 7.238 3.587 6.28 3.821 5.69 4.218 L 5.688 4.22 C 4.624 4.912 3.948 6.063 3.862 7.329 L 4.805 6.386 C 5.078 6.113 5.522 6.113 5.795 6.386 C 6.068 6.66 6.068 7.103 5.795 7.376 L 3.795 9.376 C 3.664 9.508 3.486 9.581 3.3 9.581 C 3.114 9.581 2.936 9.508 2.805 9.376 L 0.805 7.376 C 0.532 7.103 0.532 6.66 0.805 6.386 C 1.078 6.113 1.522 6.113 1.795 6.386 L 2.482 7.072 C 2.636 5.433 3.53 3.955 4.91 3.057 C 5.82 2.443 7.112 2.172 8.358 2.276 C 9.61 2.38 10.93 2.874 11.83 3.931 C 12.081 4.225 12.046 4.667 11.752 4.918 C 11.458 5.169 11.016 5.134 10.765 4.84 C 10.167 4.138 9.237 3.754 8.241 3.67 Z M 14.793 9.022 C 14.662 9.154 14.484 9.227 14.298 9.227 C 14.112 9.227 13.934 9.154 13.803 9.022 L 13.117 8.336 C 12.963 9.976 12.069 11.455 10.689 12.352 C 9.779 12.965 8.486 13.236 7.241 13.132 C 5.987 13.028 4.668 12.534 3.767 11.477 C 3.516 11.183 3.551 10.741 3.845 10.49 C 4.14 10.239 4.582 10.274 4.833 10.568 C 5.43 11.27 6.361 11.654 7.357 11.738 C 8.36 11.821 9.318 11.588 9.908 11.19 L 9.911 11.188 C 10.974 10.497 11.65 9.345 11.736 8.079 L 10.793 9.022 C 10.52 9.296 10.076 9.296 9.803 9.022 C 9.53 8.749 9.53 8.306 9.803 8.032 L 11.803 6.032 C 11.934 5.901 12.112 5.827 12.298 5.827 C 12.484 5.827 12.662 5.901 12.793 6.032 L 14.793 8.032 C 14.924 8.164 14.998 8.342 14.998 8.527 C 14.998 8.713 14.924 8.891 14.793 9.022 Z" fill="#818181"></path></svg>