<svg xmlns="http://www.w3.org/2000/svg" width="24" height="24" viewBox="0 0 24 24"><path d="M 22.203 22.189 C 22.006 22.387 21.738 22.499 21.458 22.499 C 21.178 22.499 20.91 22.387 20.713 22.189 L 16.852 18.324 C 14.967 19.837 12.575 20.569 10.168 20.371 C 6.501 20.064 3.345 17.658 2.078 14.203 C 0.811 10.748 1.664 6.872 4.264 4.268 C 7.81 0.719 13.511 0.563 17.245 3.913 C 20.98 7.264 21.447 12.949 18.309 16.864 L 22.203 20.729 C 22.597 21.136 22.597 21.782 22.203 22.189 Z M 16.159 16.171 C 17.536 14.791 18.31 12.922 18.309 10.972 C 18.312 8 16.523 5.319 13.778 4.181 C 11.032 3.043 7.871 3.672 5.771 5.775 C 3.67 7.878 3.041 11.039 4.178 13.786 C 5.313 16.533 7.993 18.324 10.965 18.324 C 12.913 18.324 14.782 17.549 16.159 16.171 Z" fill="current"></path></svg>