<svg xmlns="http://www.w3.org/2000/svg" width="60" height="60"><path d="M 20.5 47.316 C 30.837 47.316 39.217 40.718 39.217 32.579 C 39.217 24.44 30.837 17.842 20.5 17.842 C 10.163 17.842 1.783 24.44 1.783 32.579 C 1.783 36.635 3.864 40.308 7.232 42.973 C 7.263 44.352 6.771 46.573 2.791 49.158 C 5.797 48.999 12.359 48.379 14.488 46.539 C 16.375 47.043 18.397 47.316 20.5 47.316 Z" fill="rgb(43,41,41)"></path><path d="M 39.5 35.053 C 30.675 35.053 23.522 29.774 23.522 23.263 C 23.522 16.752 30.675 11.474 39.5 11.474 C 48.325 11.474 55.478 16.752 55.478 23.263 C 55.478 26.508 53.702 29.447 50.827 31.579 C 50.8 32.682 51.22 34.458 54.617 36.526 C 52.051 36.399 46.449 35.904 44.632 34.431 C 43.021 34.834 41.295 35.053 39.5 35.053 Z" fill="rgb(255, 236, 66)"></path></svg>